HIERARCHY
ROOT Hips
{
  OFFSET 265.287 66.7526 -254.649
  CHANNELS 6 Xposition Yposition Zposition Zrotation Xrotation Yrotation
  JOINT LeftUpLeg
  {
    OFFSET 8.64259 1.95398 -2.38835
    CHANNELS 3 Zrotation Xrotation Yrotation
    JOINT LeftLeg
    {
      OFFSET 43.7702 0 0
      CHANNELS 3 Zrotation Xrotation Yrotation
      JOINT LeftFoot
      {
        OFFSET 40.6238 0 0
        CHANNELS 3 Zrotation Xrotation Yrotation
        JOINT LeftToeBase
        {
          OFFSET 12.7242 0 0
          CHANNELS 3 Zrotation Xrotation Yrotation
          End Site
          {
            OFFSET 0 0 0
          }
        }
      }
    }
  }
  JOINT RightUpLeg
  {
    OFFSET -8.2249 1.95398 -2.59336
    CHANNELS 3 Zrotation Xrotation Yrotation
    JOINT RightLeg
    {
      OFFSET 43.5653 0 0
      CHANNELS 3 Zrotation Xrotation Yrotation
      JOINT RightFoot
      {
        OFFSET 40.6238 0 0
        CHANNELS 3 Zrotation Xrotation Yrotation
        JOINT RightToeBase
        {
          OFFSET 12.7242 0 0
          CHANNELS 3 Zrotation Xrotation Yrotation
          End Site
          {
            OFFSET 0 0 0
          }
        }
      }
    }
  }
  JOINT Spine
  {
    OFFSET 0.165834 0.87714 6.61349
    CHANNELS 3 Zrotation Xrotation Yrotation
    JOINT Spine1
    {
      OFFSET 7.38963 1.71661e-005 0
      CHANNELS 3 Zrotation Xrotation Yrotation
      JOINT Spine2
      {
        OFFSET 11.9445 1.14441e-005 0
        CHANNELS 3 Zrotation Xrotation Yrotation
        JOINT Spine3
        {
          OFFSET 14.7254 4.19617e-005 0
          CHANNELS 3 Zrotation Xrotation Yrotation
          JOINT Spine4
          {
            OFFSET 10.9679 0 0
            CHANNELS 3 Zrotation Xrotation Yrotation
            JOINT RightShoulder
            {
              OFFSET 2.46616 -1.6653 3.69651
              CHANNELS 3 Zrotation Xrotation Yrotation
              JOINT RightArm
              {
                OFFSET 13.0012 0 0
                CHANNELS 3 Zrotation Xrotation Yrotation
                JOINT RightForeArm
                {
                  OFFSET 28.7848 1.52588e-005 0
                  CHANNELS 3 Zrotation Xrotation Yrotation
                  JOINT RightHand
                  {
                    OFFSET 26.5688 1.52588e-005 0
                    CHANNELS 3 Zrotation Xrotation Yrotation
                    End Site
                    {
                      OFFSET 0 0 0
                    }
                  }
                }
              }
            }
            JOINT LeftShoulder
            {
              OFFSET 2.38034 -1.29275 -3.7523
              CHANNELS 3 Zrotation Xrotation Yrotation
              JOINT LeftArm
              {
                OFFSET 16.3182 6.10351e-005 0
                CHANNELS 3 Zrotation Xrotation Yrotation
                JOINT LeftForeArm
                {
                  OFFSET 27.0901 0 0
                  CHANNELS 3 Zrotation Xrotation Yrotation
                  JOINT LeftHand
                  {
                    OFFSET 24.5451 1.52588e-005 0
                    CHANNELS 3 Zrotation Xrotation Yrotation
                    End Site
                    {
                      OFFSET 0 0 0
                    }
                  }
                }
              }
            }
            JOINT Neck
            {
              OFFSET 5.0226 -0.0266342 0
              CHANNELS 3 Zrotation Xrotation Yrotation
              JOINT Head
              {
                OFFSET 6.69364 2.86102e-005 0
                CHANNELS 3 Zrotation Xrotation Yrotation
                End Site
                {
                  OFFSET 0 0 0
                }
              }
            }
          }
        }
      }
    }
  }
}
MOTION
Frames:	16
Frame Time:	0.0416667
-0.296119 96.8873 -7.34129 108.212 -85.4641 107.305 -173.537 2.42301 90.6063 -13.1217 6.79598 2.05369 66.083 2.6164 -0.291955 28.4061 -0.227409 2.93543 174.938 2.75013 87.1925 -13.779 -6.0871 -0.860742 66.5129 -2.52507 1.43477 28.8067 -0.0157807 0.104819 -0.277786 7.16632 -90.1823 12.5405 -0.638645 -0.290037 0.869661 -0.650792 -0.261651 -21.6661 -0.521962 -0.468577 -1.6535 -0.521952 -0.468566 101.019 -51.7498 -83.9158 29.1733 -4.70402 -5.67869 1.14393 -9.3438 -11.6344 -12.3871 -0.462094 -0.874808 -80.5131 -51.1 92.8704 -29.0488 11.6572 -18.1783 5.95591 29.6746 -8.54695 0.360618 -0.118245 -5.532 11.2244 0.410822 5.66404 -10.7485 -0.683407 -4.037 
-0.249646 96.8825 -7.24621 109.86 -85.285 109.075 -173.365 1.85856 90.7475 -12.3907 5.72073 2.0055 66.7463 2.80893 -0.838682 27.3032 0.287164 1.34631 174.923 2.28249 87.2714 -13.3583 -6.05784 -0.833522 66.4143 -2.53041 1.58484 28.9868 -0.00780901 -0.195045 -0.275108 7.18387 -90.2061 12.5052 -0.644699 -0.337247 0.834358 -0.658916 -0.30855 -21.7013 -0.513549 -0.515418 -1.68868 -0.513535 -0.515409 101.283 -51.604 -83.5155 29.1684 -3.99353 -5.80617 0.61487 -11.6366 -11.8919 -12.8014 -0.558495 -0.115716 -80.6237 -51.2733 92.7131 -28.1889 13.7377 -18.2004 2.84644 21.2476 -6.49883 5.89479 0.0408039 -2.4081 10.1248 0.0484269 4.71448 -8.86439 -0.901256 -2.61127 
-0.171783 96.8739 -7.15729 111.541 -85.6094 110.754 -173.397 1.73925 90.7167 -12.4004 5.33299 2.02685 66.7174 2.70105 -1.2334 27.371 0.209264 1.80794 174.873 2.3821 87.1357 -13.5948 -6.1552 -0.839339 66.605 -2.40256 2.33891 28.6203 0.079227 -0.480461 -0.233565 7.18602 -90.2179 12.5009 -0.567723 -0.369581 0.829984 -0.583435 -0.344245 -21.7054 -0.430401 -0.523115 -1.69274 -0.430404 -0.523126 101.338 -51.4804 -83.4331 29.0718 -4.22384 -5.77409 0.705748 -11.177 -12.1009 -12.6734 -0.590362 0.240014 -80.5998 -51.6273 92.7662 -27.9059 13.6291 -18.333 2.67465 20.7045 -6.14163 6.13943 -0.00104497 -3.17201 10.2121 -0.0478825 4.85856 -8.77861 -1.04834 -2.29147 
-0.183374 96.8693 -7.24927 108.538 -85.6666 107.949 -173.36 2.26782 90.8435 -12.835 5.56163 2.0534 66.6674 2.68592 -0.999837 27.7354 0.0899923 1.90187 174.963 2.58357 87.3511 -13.4131 -6.22826 -0.75623 66.2817 -2.36623 1.98866 28.9607 0.0186994 -0.39479 -0.230108 7.15924 -90.2358 12.5543 -0.56946 -0.404889 0.883409 -0.586723 -0.379432 -21.6518 -0.421445 -0.557304 -1.63921 -0.421449 -0.557317 101.322 -51.5494 -83.4575 29.0311 -4.20298 -5.76884 0.672581 -11.2544 -12.1575 -12.6617 -0.593379 0.271459 -80.5753 -51.3817 92.7907 -28.1275 13.5722 -18.4018 2.75017 20.8765 -6.12907 5.80656 -0.00776684 -3.2147 10.1565 0.0896953 4.87042 -8.83409 -0.911644 -2.3214 
-0.163869 96.8836 -7.24509 108.419 -85.5003 107.812 -173.436 2.12851 90.802 -12.6119 5.63893 2.11257 66.7679 2.75811 -1.02292 27.4633 0.172663 1.88094 174.937 2.43942 87.3448 -13.2726 -6.38517 -0.74503 66.1601 -2.453 1.42664 29.3153 -0.0344798 -0.393187 -0.242321 7.15792 -90.2461 12.5568 -0.598592 -0.42208 0.885923 -0.616591 -0.39533 -21.6494 -0.444077 -0.582469 -1.63672 -0.444077 -0.582472 101.206 -51.4653 -83.6354 29.0855 -4.09189 -5.73189 0.628714 -11.3614 -12.0152 -12.7057 -0.552817 -0.130903 -80.4042 -51.4076 93.0476 -28.1396 13.6108 -18.4078 2.81337 20.7312 -6.33923 5.56089 -0.0168469 -3.30729 10.1241 0.32892 5.16046 -9.06982 -0.725734 -2.55789 
-0.162095 96.867 -7.25672 108.969 -85.3434 108.157 -173.522 2.041 90.6291 -12.6334 5.51278 2.07851 66.8407 2.77815 -1.1725 27.3022 0.233002 1.77852 174.918 2.55035 87.1788 -13.7022 -5.99845 -0.858108 66.5395 -2.48188 1.73542 28.829 -0.00116373 -0.0500817 -0.244568 7.16563 -90.2236 12.5416 -0.592331 -0.377886 0.870775 -0.608382 -0.351459 -21.6646 -0.45138 -0.538433 -1.65198 -0.451376 -0.538438 101.244 -51.5423 -83.5757 28.9282 -4.28745 -5.74793 0.751055 -11.0079 -12.0684 -12.7918 -0.557669 -0.120354 -80.4202 -51.4374 93.0251 -28.0452 13.7533 -18.4221 2.79668 20.5233 -6.45727 5.94523 0.000111572 -3.12288 10.2106 0.412799 5.2325 -9.26403 -0.656486 -2.62546 
-0.169891 96.8702 -7.23429 111.058 -85.1516 110.031 -173.518 1.66292 90.5059 -12.3556 5.5785 2.00448 66.7147 2.78464 -1.12759 27.3291 0.258581 1.51511 174.79 2.46525 86.9472 -14.0215 -5.96454 -0.888987 66.6484 -2.41745 2.03112 28.9133 0.0124086 -0.279864 -0.265391 7.1841 -90.2009 12.5048 -0.622822 -0.329239 0.833976 -0.636711 -0.301519 -21.7017 -0.495082 -0.501209 -1.68903 -0.495079 -0.501209 101.031 -51.6014 -83.9008 28.9551 -4.13605 -5.78415 0.717446 -10.9452 -12.0652 -12.588 -0.615531 0.51444 -80.3398 -51.3586 93.1415 -27.9994 13.7671 -18.3797 2.7106 20.4218 -6.3589 5.92435 -0.00615926 -3.20429 10.3499 0.519954 4.81716 -9.70566 -0.485904 -2.01355 
-0.15043 96.8613 -7.2111 112.607 -85.1013 111.541 -173.589 1.52596 90.4372 -12.4481 5.70094 2.05106 66.5695 2.70455 -1.20572 27.4953 0.116845 2.25266 174.731 2.33787 86.8651 -14.0926 -5.7807 -0.890446 66.8354 -2.38091 2.46651 28.644 0.0915403 -0.614743 -0.23688 7.20578 -90.2091 12.4614 -0.570057 -0.352081 0.790533 -0.585008 -0.326646 -21.7449 -0.437893 -0.507128 -1.73226 -0.437894 -0.507127 101.172 -51.525 -83.6862 28.9929 -4.15542 -6.05738 0.813375 -11.1084 -11.7327 -12.8025 -0.611474 0.378665 -80.4117 -51.5296 93.042 -27.7572 13.9307 -18.6041 2.469 20.2619 -6.05923 5.82909 -0.0193128 -3.37862 10.7055 0.61957 4.6925 -10.4034 -0.371896 -1.8614 
-0.167424 96.8804 -7.23021 111.507 -85.1634 110.513 -173.583 1.69305 90.4819 -12.4954 5.65895 2.06851 66.6289 2.77528 -0.952765 27.4565 0.195516 1.71568 174.725 2.40717 86.9297 -13.9602 -6.14249 -0.818785 66.593 -2.42224 2.01182 28.9984 0.0443923 -0.673052 -0.223847 7.19246 -90.2305 12.4879 -0.5544 -0.396541 0.817001 -0.571311 -0.371768 -21.7183 -0.409602 -0.544831 -1.7056 -0.409592 -0.544825 101.14 -51.4568 -83.7374 28.9032 -4.44876 -6.02622 0.970347 -10.3897 -11.9021 -12.5979 -0.597694 0.340825 -80.3361 -51.8492 93.1687 -27.4899 13.8104 -18.6093 2.53057 20.4567 -6.14602 5.38924 0.00361484 -2.98214 10.7916 0.987708 4.86096 -11.1059 -0.0249489 -2.13203 
-0.211152 96.8609 -7.18941 112.578 -85.0265 111.418 -173.629 1.4204 90.3797 -12.2757 5.76353 2.0548 66.6289 2.7924 -0.966136 27.4363 0.188383 1.82094 174.708 2.40273 86.8342 -14.3135 -6.00507 -0.892602 66.8417 -2.46687 1.97231 29.0426 0.0313051 -0.616872 -0.228157 7.203 -90.2192 12.467 -0.557496 -0.373394 0.796119 -0.573391 -0.348506 -21.7392 -0.419501 -0.523688 -1.72658 -0.4195 -0.523682 101.09 -51.4859 -83.8133 29.0047 -4.32187 -5.97178 0.937798 -10.112 -12.0359 -12.5933 -0.620408 0.557971 -80.3814 -51.7663 93.0979 -27.7588 13.4729 -18.2207 2.93405 20.3858 -6.6084 5.29718 -0.0147134 -3.23851 10.4931 2.69125 3.49581 -11.2649 1.82863 -0.0158247 
-0.17509 96.866 -7.19527 110.652 -85.2676 109.691 -173.574 1.75813 90.5237 -12.4668 5.40183 2.075 66.799 2.78556 -1.17206 27.2884 0.26279 1.57883 174.81 2.47482 87.0009 -13.9326 -5.90373 -0.866584 66.6948 -2.42175 2.21319 28.8549 0.0395905 -0.440505 -0.185602 7.17736 -90.2758 12.5178 -0.500004 -0.492969 0.846908 -0.521206 -0.470493 -21.6879 -0.328727 -0.620445 -1.67524 -0.328732 -0.620453 101.137 -51.0601 -83.7495 29.4415 -4.10486 -5.88488 0.820983 -10.0131 -12.3603 -13.1433 -0.63853 0.486865 -80.409 -52.1678 93.0749 -27.4227 13.4862 -18.4117 2.70397 20.303 -6.27629 5.13266 -0.0242019 -3.3594 10.5771 7.58089 -0.383322 -12.5876 7.04373 5.97186 
-0.169478 96.8717 -7.14121 109.629 -85.5021 108.725 -173.496 1.81462 90.567 -12.3571 5.57355 2.01636 66.6261 2.76166 -1.07937 27.5978 0.113846 2.03579 174.841 2.58186 87.0368 -13.8332 -5.93923 -0.85132 66.6089 -2.35602 2.40097 28.8767 0.0336907 -0.417737 -0.11993 7.16874 -90.306 12.5351 -0.383931 -0.5667 0.864139 -0.408501 -0.549265 -21.6702 -0.195872 -0.655887 -1.65753 -0.195872 -0.655891 101.207 -51.1558 -83.6397 29.1543 -4.53432 -5.68592 1.01456 -9.79648 -12.6504 -13.5378 -0.673782 0.614177 -80.2475 -51.9225 93.3039 -27.7384 13.5883 -18.6342 2.79918 20.3939 -6.40989 5.33458 -0.00523714 -3.10649 10.1746 14.2975 -5.10204 -15.0716 13.8364 13.4525 
-0.165057 96.8495 -7.11408 108.267 -85.3912 107.391 -173.57 2.04222 90.5494 -12.7143 5.64989 2.08395 66.6921 2.74525 -1.02287 27.6021 0.104403 2.10099 174.81 2.58516 87.0461 -13.7915 -5.9552 -0.79797 66.7638 -2.48091 2.3628 28.8037 0.0965138 -0.869592 -0.0494649 7.18223 -90.3671 12.508 -0.272998 -0.701657 0.836924 -0.303615 -0.688972 -21.6967 -0.049512 -0.751264 -1.68408 -0.0495089 -0.751264 101.074 -50.4995 -83.8568 29.377 -4.79469 -5.45449 1.16798 -9.75583 -12.4508 -13.5177 -0.643913 0.359223 -80.1635 -52.6884 93.46 -27.1912 13.4633 -18.9465 2.94171 20.1446 -6.83407 5.1804 -0.0204105 -3.30753 9.4185 20.4491 -8.61248 -18.1781 19.5119 19.9233 
-0.166042 96.8166 -7.06467 105.624 -85.0529 104.815 -173.634 2.27649 90.6049 -12.8925 5.7443 2.16285 67.0294 2.84379 -1.08755 27.4033 0.214062 1.69323 174.855 2.70506 87.1691 -14.0154 -5.69631 -0.769625 66.7712 -2.53763 1.89605 29.1947 0.0122446 -0.652202 0.0550595 7.18639 -90.3855 12.5002 -0.0740631 -0.761433 0.829014 -0.10751 -0.757438 -21.7044 0.158188 -0.748499 -1.69175 0.158191 -0.748493 101.09 -50.0715 -83.8415 30.1087 -4.34836 -5.1152 0.976861 -9.47613 -12.2711 -12.9598 -0.601344 0.214185 -80.0647 -52.912 93.6141 -26.6609 13.6797 -19.8144 2.61606 20.0921 -6.50222 4.05328 -0.0201471 -3.11632 8.21659 24.9024 -11.5963 -20.24 23.3954 25.4908 
-0.139221 96.8331 -6.97398 107.972 -84.1578 106.815 -173.76 1.71665 90.266 -12.6845 6.38062 2.16509 66.8233 2.82296 -1.08173 27.3995 0.206353 1.76363 174.642 2.21819 86.8178 -14.1961 -4.96067 -0.847385 66.9961 -2.45722 2.25278 29.21 0.00778026 -0.633325 0.13019 7.23326 -90.3765 12.4072 0.0798181 -0.760567 0.736026 0.0462704 -0.763352 -21.7976 0.304694 -0.701425 -1.78495 0.304705 -0.701423 101.077 -49.6533 -83.8693 30.321 -4.33382 -4.40863 0.870531 -10.2785 -12.6809 -13.7431 -0.657613 0.376317 -80.0682 -53.3418 93.6257 -26.399 13.5111 -20.1291 2.71653 20.4052 -6.49424 3.71394 -0.0621007 -3.85188 7.57117 27.4213 -12.3817 -21.7408 25.4051 27.6827 
-0.0671011 96.7834 -6.95178 103.141 -83.3506 101.867 -174.058 2.13616 90.1323 -12.8579 6.88067 2.30762 66.9709 2.81437 -1.36995 27.167 0.254302 1.92338 174.535 2.54254 86.7016 -14.5242 -4.23435 -0.744416 67.1826 -2.47487 1.98675 28.9938 -0.0285724 -0.019979 0.190764 7.17739 -90.3778 12.5192 0.199139 -0.777508 0.848004 0.164727 -0.785522 -21.6858 0.423596 -0.681723 -1.67311 0.423596 -0.681724 100.773 -49.2892 -84.3556 30.4606 -4.00452 -4.03278 0.541115 -11.809 -12.9235 -13.3058 -0.857722 2.39742 -79.6616 -54.197 94.2466 -25.7684 13.3257 -20.6483 2.47154 20.6565 -5.94932 4.10528 -0.0716515 -4.03575 6.94153 27.6554 -11.925 -21.7297 25.5906 27.1975 
